<svg aria-hidden="true" style="position:absolute;width:0;height:0;overflow:hidden" xmlns="http://www.w3.org/2000/svg"><defs><symbol id="icon-profile_1" viewBox="0 0 32 32"><path d="M15.998 15.91a6.41 6.41 0 0 1-6.392-6.389V9.52a6.41 6.41 0 0 1 6.391-6.392h.001a6.41 6.41 0 0 1 6.392 6.391v.001a6.41 6.41 0 0 1-6.391 6.392h-.001zm5.912 1.12c2.556-2.08 3.996-5.274 3.516-8.95-.64-4.154-4.154-7.51-8.31-7.99C11.204-.71 6.41 3.766 6.41 9.518c0 3.036 1.44 5.754 3.516 7.512C4.492 19.106.658 23.74.018 30.132c-.16.96.64 1.758 1.6 1.758.798 0 1.436-.64 1.596-1.44.64-7.188 6.072-11.344 12.784-11.344 6.552 0 12.144 4.156 12.784 11.346 0 .8.8 1.438 1.598 1.438.96 0 1.758-.8 1.598-1.758-.8-6.392-4.634-11.186-10.068-13.102z"/></symbol><symbol id="icon-shopping_cart" viewBox="0 0 32 32"><path d="M26.84 28.8H5.08c-.96 0-1.76-.8-1.6-1.76l1.76-12.8c.16-.8.8-1.44 1.6-1.44h1.12V16c0 .96.64 1.6 1.6 1.6s1.6-.64 1.6-1.6v-3.2h9.6V16c0 .96.64 1.6 1.6 1.6s1.6-.64 1.6-1.6v-3.2h1.12c.8 0 1.44.64 1.6 1.44l1.76 12.8c.16.96-.48 1.76-1.6 1.76zM11.16 8c0-2.72 2.08-4.8 4.8-4.8s4.8 1.6 4.8 4.8v1.6h-9.6zm20.8 20.32-2.24-16c-.16-1.6-1.6-2.72-3.2-2.72h-2.56V8c0-4.8-3.52-8-8-8s-8 3.52-8 8v1.6H5.88c-1.6 0-3.36 1.12-3.68 2.72l-2.24 16C-.36 30.24 1.24 32 3.16 32h25.6c1.92 0 3.52-1.76 3.2-3.68z"/></symbol><symbol id="icon-right_arrow" viewBox="0 0 102 32"><path d="m86.438 29.73 11.716-11.726H1.584v-2h96.59L85.032 2.86l1.406-1.406L102 17.004 87.856 31.148z"/></symbol><symbol id="icon-check_name" viewBox="0 0 46 32"><path fill="#abdb51" style="fill:var(--color3, #abdb51)" d="m18.283 30.661-16.16-16.16 3.239-3.241 12.923 12.928L42.527-.052l3.239 3.227z"/></symbol><symbol id="icon-check" viewBox="0 0 43 32"><path fill="#fff" style="fill:var(--color1, #fff)" d="m19.051 31.013-.021.021L3.947 15.951l7.541-7.547 7.616 7.616L34.213.905l7.541 7.547-22.629 22.64z"/></symbol><symbol id="icon-active_point" viewBox="0 0 32 32"><path d="M8.889 16a7.111 7.111 0 0 1 14.222 0 7.111 7.111 0 0 1-14.222 0z"/><path d="M8.889 16a7.111 7.111 0 0 1 14.222 0 7.111 7.111 0 0 1-14.222 0z"/></symbol><symbol id="icon-Burger" viewBox="0 0 32 32"><path fill="none" stroke="#d41443" style="stroke:var(--color5, #d41443)" stroke-width="1.6" d="M0 6.4h32M0 16h32M0 25.6h32"/></symbol><symbol id="icon-close" viewBox="0 0 32 32"><path fill="none" stroke="#fff" style="stroke:var(--color1, #fff)" stroke-width="2" d="m2.519 2 26.963 28M2 29.481 30 2.518"/></symbol><symbol id="icon-drawer" viewBox="0 0 32 32"><path d="m31.781 20.375-8-10A1 1 0 0 0 23 10H9a1 1 0 0 0-.781.375l-8 10A1 1 0 0 0 0 21v9a2 2 0 0 0 2 2h28a2 2 0 0 0 2-2v-9c0-.227-.077-.447-.219-.625zM30 22h-7l-4 4h-6l-4-4H2v-.649L9.481 12H22.52l7.481 9.351V22z"/><path d="M23 16H9a1 1 0 0 1 0-2h14a1 1 0 0 1 0 2zM25 20H7a1 1 0 0 1 0-2h18a1 1 0 0 1 0 2z"/></symbol><symbol id="icon-bin2" viewBox="0 0 32 32"><path d="M6 32h20l2-22H4zM20 4V0h-8v4H2v6l2-2h24l2 2V4H20zm-2 0h-4V2h4v2z"/></symbol><symbol id="icon-spinner" viewBox="0 0 32 32"><path d="M12 4a4 4 0 1 1 8 0 4 4 0 0 1-8 0zm8.485 3.515a4 4 0 1 1 8 0 4 4 0 0 1-8 0zM26 16a2 2 0 1 1 3.999-.001A2 2 0 0 1 26 16zm-3.515 8.485a2 2 0 1 1 3.999-.001 2 2 0 0 1-3.999.001zM14 28a2 2 0 1 1 4 0 2 2 0 1 1-4 0zm-8.485-3.515a2 2 0 1 1 4 0 2 2 0 1 1-4 0zm-1-16.97a3 3 0 1 1 6 0 3 3 0 1 1-6 0zM1.75 16a2.25 2.25 0 1 1 4.5 0 2.25 2.25 0 0 1-4.5 0z"/></symbol><symbol id="icon-menu_40px" viewBox="0 0 32 32"><path d="M6.4 11.733V9.6h19.2v2.133H6.4zm0 5.334h19.2v-2.133H6.4v2.133zm0 5.333h19.2v-2.133H6.4V22.4z"/></symbol></defs></svg>